<?xml version="1.0" encoding="utf-8"?>
<!-- Generator: Adobe Illustrator 19.2.1, SVG Export Plug-In . SVG Version: 6.00 Build 0)  -->
<svg version="1.1" id="Layer_1" xmlns="http://www.w3.org/2000/svg" xmlns:xlink="http://www.w3.org/1999/xlink" x="0px" y="0px"
	 viewBox="0 0 123 20" style="enable-background:new 0 0 123 20;" xml:space="preserve">
<style type="text/css">
	.st0{fill:#FFFFFF;}
	.st1{fill:#00BFA3;}
	.st2{fill:#00DBBB;}
	.st3{fill:#00B2EF;}
	.st4{fill:#00D2F4;}
</style>
<title>Artboard 1 copy</title>
<g id="wordmark">
	<g id="Text">
		<path class="st0" d="M38.2,14.3h1.1V9.6l4.5-6.7h-1.3l-3.7,5.8L35,2.8h-1.3l4.5,6.7L38.2,14.3z"/>
		<path class="st0" d="M46.1,5.8c-2.5,0-3.9,2-3.9,4.4s1.4,4.4,3.9,4.4s3.9-2,3.9-4.4S48.6,5.8,46.1,5.8z M43.2,10.1
			c0-1.8,1-3.5,2.9-3.5S49,8.4,49,10.1s-1,3.5-2.9,3.5S43.2,11.9,43.2,10.1L43.2,10.1z"/>
		<path class="st0" d="M58,6h-1v4.3c0,1.7-0.8,3.3-2.5,3.3s-2.2-0.8-2.2-2.3V6h-1v5.4c0,1.9,0.8,3.1,2.9,3.1c1.2,0,2.3-0.6,2.8-1.7
			l0,0v1.5h1V6z"/>
		<path class="st0" d="M59.8,14.2h1V9.8c-0.1-1.6,1.2-2.9,2.7-2.9c0.1,0,0.2,0,0.3,0v-1c-1.4-0.1-2.7,0.7-3.1,2l0,0V6h-0.9
			L59.8,14.2z"/>
		<path class="st0" d="M67.8,14.3h7.5v-0.9h-6.4V2.8h-1.1V14.3z"/>
		<path class="st0" d="M82.6,10.4c0.1-2.3-1-4.6-3.6-4.6s-3.7,2.2-3.7,4.4c0,2.4,1.1,4.4,3.7,4.4c1.8,0.1,3.4-1.2,3.6-3h-1
			c-0.2,1.3-1.3,2.2-2.6,2.1c-1.9,0-2.7-1.8-2.7-3.2L82.6,10.4z M76.2,9.5c0.2-1.5,1.1-2.9,2.7-2.9c1.5,0.1,2.7,1.4,2.6,2.9
			c0,0,0,0,0,0H76.2z"/>
		<path class="st0" d="M84.6,8.5c0-1.1,0.9-1.9,1.9-1.9c0.1,0,0.2,0,0.3,0C88,6.6,89,7,89,8.3c0,0.9-0.5,1-1.3,1.1
			c-2.2,0.3-4.4,0.3-4.4,2.6c0,1.7,1.2,2.4,2.8,2.4c1.2,0.1,2.4-0.6,3-1.7l0,0c0,0.9,0.2,1.4,1.2,1.4c0.2,0,0.4,0,0.7-0.1v-0.9
			c-0.1,0-0.2,0.1-0.3,0.1l0,0c-0.3,0-0.6-0.3-0.5-0.6c0,0,0,0,0,0V8.4c0-2.2-1.6-2.6-3-2.6c-1.9,0-3.2,0.8-3.3,2.8L84.6,8.5z
			 M89,11.1c0,1.5-1.3,2.6-2.7,2.6c-0.1,0-0.1,0-0.2,0h-0.1c-0.9,0-1.7-0.7-1.8-1.6c0,0,0,0,0,0c0-1.6,2.1-1.6,3.8-1.9
			c0.3,0,0.7-0.1,0.8-0.4l0,0L89,11.1z"/>
		<path class="st0" d="M91.8,14.3h1V9.9c-0.1-1.6,1.1-2.9,2.7-3c0.1,0,0.3,0,0.4,0v-1c-1.4-0.1-2.7,0.7-3.1,2l0,0V6h-0.9L91.8,14.3z
			"/>
		<path class="st0" d="M96.7,14.3h1V9.5C97.6,8,98.6,6.8,100,6.6c0.1,0,0.2,0,0.3,0c1.6,0,2.1,1.1,2.1,2.5v5.1h1V9
			c0-2-0.7-3.2-3-3.2c-1.1,0-2.2,0.6-2.6,1.7l0,0V6h-1L96.7,14.3z"/>
		<path class="st0" d="M105,4.5h1V2.8h-1V4.5z M105,14.3h1V6h-1V14.3z"/>
		<path class="st0" d="M107.7,14.3h1V9.5c-0.1-1.4,0.9-2.7,2.3-2.8c0.1,0,0.2,0,0.3,0c1.6,0,2.1,1.1,2.1,2.5v5.1h1V9
			c0-2-0.7-3.2-3-3.2c-1.1,0-2.2,0.6-2.6,1.7l0,0V6h-1L107.7,14.3z"/>
		<path class="st0" d="M123,6h-1v1.4l0,0c-0.5-1-1.5-1.7-2.6-1.7c-2.4,0-3.7,1.8-3.7,4.2s1.1,4.2,3.7,4.2c1.1,0,2.2-0.7,2.6-1.7l0,0
			v1.1c0,2-0.8,3.1-2.6,3.1c-1.1,0.2-2.2-0.6-2.4-1.6h-1c0.1,1.8,1.8,2.5,3.4,2.5c2.7,0,3.7-1.5,3.7-4L123,6z M122,10
			c0,1.7-0.9,3.3-2.7,3.3s-2.7-1.5-2.7-3.3s0.8-3.4,2.7-3.4S122,8.4,122,10z"/>
	</g>
</g>
<g id="logo">
	<polygon class="st1" points="14.3,0 10,7.5 5.7,0 0,0 7.1,12.5 2.9,20 8.6,20 20,0 	"/>
	<polygon class="st2" points="7.1,12.5 10,17.5 12.9,12.5 10,7.5 	"/>
	<polygon class="st3" points="20,14.3 20,0 14.3,0 14.3,14.3 14.3,20 20,20 28.6,20 28.6,14.3 	"/>
	<polygon class="st4" points="14.3,10 20,0 14.3,0 	"/>
	<rect x="14.3" y="14.3" class="st4" width="5.7" height="5.7"/>
</g>
</svg>
