<svg xmlns="http://www.w3.org/2000/svg" viewBox="0 0 1024 1024"><defs><style>.cls-1{isolation:isolate;}.cls-2{fill:#fff;}.cls-3{fill:#00bfa3;}.cls-4,.cls-7{fill:#00b2ef;}.cls-5{fill:#00dbbb;}.cls-6{fill:#00d2f4;}.cls-7{mix-blend-mode:overlay;}</style></defs><title>YL_logo</title><g class="cls-1"><g id="Layer_1" data-name="Layer 1"><g id="YL_Logo"><g id="YL_Logo_onBG"><g id="yl_logo_ibmClrs"><g id="yl_logo_rev"><path class="cls-2" d="M172.59,821.3,134.3,764.06h11l32,49.33,31.89-49.33h11L181.86,821.3v40.07h-9.27Z"/><path class="cls-2" d="M272.75,826.21c0,20.17-11.72,37.2-33.25,37.2s-33.26-17-33.26-37.2S218,789,239.5,789,272.75,806,272.75,826.21Zm-57.92,0c0,15,8.18,30,24.67,30s24.67-15,24.67-30-8.18-30-24.67-30S214.83,811.22,214.83,826.21Z"/><path class="cls-2" d="M341.16,861.37h-7.9V848.7H333c-4.5,9.4-13.77,14.72-24.26,14.72-17.72,0-24.67-10.36-24.67-26.71V791h8.59v45.79c.41,12.68,5.18,19.35,18.81,19.35,14.72,0,21.12-13.9,21.12-28.21V791h8.59Z"/><path class="cls-2" d="M356,791h7.91v16.49h.27c4.36-11.31,13.9-18,26.58-17.44v8.59c-15.54-.82-26.17,10.63-26.17,25.21v37.48H356Z"/><path class="cls-2" d="M424.83,764.06h9.27v89.4h54.51v7.9H424.83Z"/><path class="cls-2" d="M496.18,828.52c.13,12.54,6.68,27.67,23.17,27.67,12.54,0,19.35-7.36,22.08-18H550c-3.68,15.94-12.95,25.21-30.66,25.21-22.35,0-31.76-17.17-31.76-37.2,0-18.53,9.4-37.21,31.76-37.21,22.62,0,31.62,19.76,30.94,39.52Zm45.52-7.22c-.41-12.95-8.45-25.08-22.35-25.08s-21.81,12.27-23.17,25.08Z"/><path class="cls-2" d="M559.68,812.58c.82-16.49,12.4-23.58,28.48-23.58,12.4,0,25.9,3.82,25.9,22.62V849c0,3.27,1.64,5.18,5,5.18a8,8,0,0,0,2.73-.55v7.22a23.59,23.59,0,0,1-5.59.55c-8.72,0-10.09-4.91-10.09-12.26h-.27c-6,9.13-12.13,14.31-25.62,14.31-12.95,0-23.58-6.4-23.58-20.58,0-19.76,19.22-20.44,37.75-22.62,7.09-.82,11-1.77,11-9.54,0-11.58-8.31-14.45-18.4-14.45-10.63,0-18.53,4.91-18.81,16.35Zm45.79,10.36h-.27c-1.09,2-4.91,2.72-7.22,3.13-14.58,2.59-32.71,2.45-32.71,16.22,0,8.59,7.63,13.9,15.67,13.9,13.08,0,24.67-8.31,24.53-22.08Z"/><path class="cls-2" d="M629.45,791h7.91v16.49h.27c4.36-11.31,13.9-18,26.58-17.44v8.59c-15.54-.82-26.17,10.63-26.17,25.21v37.48h-8.59Z"/><path class="cls-2" d="M670.8,791h8.59v12.13h.27c3.13-8.45,12.54-14.17,22.49-14.17,19.76,0,25.76,10.36,25.76,27.12v45.25h-8.59V817.49c0-12.13-4-21.26-17.85-21.26-13.63,0-21.81,10.36-22.08,24.12v41H670.8Z"/><path class="cls-2" d="M741.92,764.06h8.59v13.76h-8.59Zm0,27h8.59v70.32h-8.59Z"/><path class="cls-2" d="M764.35,791h8.59v12.13h.27c3.13-8.45,12.54-14.17,22.49-14.17,19.76,0,25.76,10.36,25.76,27.12v45.25h-8.59V817.49c0-12.13-4-21.26-17.85-21.26-13.63,0-21.81,10.36-22.08,24.12v41h-8.59Z"/><path class="cls-2" d="M894.7,855.65c-.14,21-8.18,33.8-31.21,33.8-14,0-27.94-6.27-29.16-21.26h8.59c1.91,10.36,11,14,20.58,14,15.81,0,22.62-9.4,22.62-26.58v-9.54h-.27a24.37,24.37,0,0,1-22.35,14.45c-22.49,0-31.75-16.08-31.75-36.11,0-19.35,11.45-35.43,31.75-35.43a24.74,24.74,0,0,1,22.35,14.17h.27V791h8.59Zm-8.59-30.26c0-13.77-6.4-29.17-22.62-29.17s-23.17,14.58-23.17,29.17c0,14.17,7.36,27.94,23.17,27.94C878.34,853.33,886.11,839.7,886.11,825.39Z"/><polygon class="cls-3" points="125.35 147.01 396 619.45 473.33 484.73 280.01 147.01 125.35 147.01"/><rect class="cls-4" x="512" y="533.66" width="386.65" height="154.66"/><polygon class="cls-3" points="202.68 688.32 512 147.01 666.66 147.01 357.34 688.32 202.68 688.32"/><rect class="cls-4" x="512" y="147.01" width="154.66" height="541.31"/><polygon class="cls-5" points="396.11 349.82 473.33 484.73 396 619.45 318.92 484.9 396.11 349.82"/><polygon class="cls-6" points="512 147.01 666.66 147.01 512 417.67 512 147.01"/><rect class="cls-7" x="512" y="533.66" width="154.66" height="154.66"/></g></g></g></g></g></g></svg>